<svg width="80" height="80" viewBox="0 0 80 80" fill="none" xmlns="http://www.w3.org/2000/svg">
<rect width="80" height="80" rx="10" fill="#803DFF"/>
<g clip-path="url(#clip0_623_14)">
<path d="M55.7731 33.608C57.5763 37.613 57.9191 42.1243 56.7418 46.3564C55.5645 50.5884 52.9417 54.2728 49.3303 56.7679C45.7188 59.263 41.3476 60.4106 36.978 60.0109C32.6084 59.6112 28.5173 57.6894 25.4173 54.5804C22.3173 51.4714 20.4048 47.3721 20.013 42.9965C19.6212 38.621 20.775 34.2465 23.2732 30.635C25.7715 27.0235 29.4559 24.4038 33.6849 23.2324C37.9138 22.0609 42.4192 22.4118 46.4163 24.224C46.0568 24.56 45.7052 24.856 45.4015 25.192C45.3434 25.2642 45.3006 25.3476 45.2759 25.4371C45.2512 25.5265 45.245 25.6201 45.2577 25.712C45.4894 26.896 45.7531 28.072 45.9848 29.256C45.9964 29.341 45.9903 29.4275 45.9669 29.5101C45.9436 29.5927 45.9034 29.6696 45.849 29.736C45.5933 30.04 45.2737 30.304 45.05 30.6C45.019 30.6461 44.9789 30.6853 44.932 30.715C44.8851 30.7448 44.8326 30.7644 44.7777 30.7727C44.7228 30.781 44.6668 30.7777 44.6133 30.7631C44.5597 30.7486 44.5098 30.7229 44.4667 30.688C42.6674 29.6965 40.639 29.197 38.5857 29.24C36.3031 29.269 34.0763 29.95 32.1671 31.2029C30.258 32.4558 28.7458 34.2285 27.8087 36.3126C26.8715 38.3966 26.5483 40.7052 26.877 42.9669C27.2057 45.2286 28.1726 47.3492 29.6641 49.0794C31.1556 50.8097 33.1096 52.0775 35.2962 52.7337C37.4829 53.3899 39.8112 53.4073 42.0074 52.7838C44.2035 52.1604 46.1762 50.9219 47.6934 49.2142C49.2105 47.5065 50.2089 45.4005 50.5713 43.144C51.0038 40.5648 50.5622 37.9149 49.3168 35.616C49.157 35.32 49.2369 35.176 49.4207 34.928C49.662 34.534 50.0409 34.2438 50.4838 34.1137C50.9268 33.9836 51.4022 34.0229 51.8178 34.224C52.614 34.4679 53.4292 34.6445 54.2549 34.752C54.4569 34.7664 54.6568 34.7035 54.8142 34.576C55.1658 34.296 55.4455 33.96 55.7731 33.608Z" fill="white"/>
<path d="M47.5829 36.8001C48.6582 38.9196 48.9434 41.3535 48.3874 43.6647C47.8315 45.9758 46.4707 48.0128 44.5495 49.4098C42.6283 50.8067 40.2726 51.4722 37.9055 51.2865C35.5383 51.1009 33.3148 50.0763 31.6344 48.3969C29.9539 46.7174 28.9265 44.4931 28.7368 42.1235C28.547 39.7538 29.2073 37.3941 30.5991 35.4681C31.9909 33.542 34.023 32.1759 36.3304 31.6151C38.6378 31.0542 41.0692 31.3354 43.1882 32.4081C42.0296 33.5601 40.8869 34.7121 39.7283 35.8561C39.6059 35.9443 39.4541 35.9815 39.3048 35.9601C38.2139 35.8333 37.1104 36.047 36.1455 36.572C35.1805 37.097 34.4011 37.9077 33.9138 38.8931C33.4265 39.8786 33.2553 40.9907 33.4234 42.0773C33.5915 43.1639 34.0908 44.172 34.853 44.9637C35.6152 45.7554 36.6031 46.292 37.6815 46.5001C38.7599 46.7082 39.8762 46.5776 40.8777 46.1263C41.8792 45.675 42.717 44.9249 43.2764 43.9786C43.8359 43.0324 44.0897 41.9363 44.0032 40.8401C43.9822 40.6927 43.9982 40.5423 44.0498 40.4026C44.1015 40.2629 44.187 40.1383 44.2989 40.0401C45.3056 39.0641 46.2804 38.0721 47.2713 37.0881C47.3671 36.9841 47.471 36.9041 47.5829 36.8001Z" fill="white"/>
<path d="M38.7296 37.9441C39.1121 37.999 39.4891 38.0873 39.8562 38.2081C39.9544 38.2591 40.0676 38.2725 40.1749 38.2461C40.2823 38.2196 40.3763 38.1549 40.4395 38.0641L48.0784 30.4401C48.1598 30.3731 48.2194 30.2831 48.2493 30.1819C48.2792 30.0806 48.2781 29.9727 48.2462 29.8721C47.9825 28.7281 47.7588 27.5681 47.4951 26.4241C47.4604 26.3168 47.457 26.2019 47.4853 26.0928C47.5136 25.9837 47.5724 25.8849 47.6549 25.8081C49.5167 23.9681 51.3624 22.1041 53.2482 20.2641C53.392 20.1201 53.6796 19.9521 53.8155 20.0081C53.9132 20.0667 53.9973 20.1456 54.062 20.2394C54.1268 20.3333 54.1708 20.4399 54.191 20.5521C54.5027 21.8801 54.7823 23.2161 55.062 24.5521C55.0715 24.6577 55.1188 24.7563 55.1951 24.8298C55.2715 24.9033 55.3717 24.9468 55.4775 24.9521C56.8305 25.2241 58.1756 25.5174 59.5126 25.8321C59.6189 25.8542 59.719 25.8993 59.806 25.9642C59.8929 26.0292 59.9646 26.1124 60.016 26.2081C60.072 26.3361 59.9202 26.6081 59.7843 26.7441C57.9306 28.6161 56.0608 30.4721 54.191 32.3441C54.1092 32.4318 54.0036 32.4936 53.8873 32.522C53.7709 32.5504 53.6487 32.5442 53.5358 32.5041L50.1319 31.7601C50.0254 31.7249 49.9109 31.7221 49.8028 31.752C49.6948 31.7819 49.5979 31.8432 49.5246 31.9281C46.9996 34.4721 44.4641 37.0054 41.9178 39.5281C41.8253 39.5995 41.7616 39.7018 41.7381 39.8163C41.7146 39.9309 41.733 40.05 41.7899 40.1521C42.0157 40.7882 42.0388 41.4788 41.8563 42.1287C41.6737 42.7785 41.2944 43.3558 40.7705 43.7808C40.2467 44.2058 39.6041 44.4578 38.9312 44.5019C38.2584 44.5461 37.5884 44.3803 37.0137 44.0274C36.4389 43.6744 35.9875 43.1517 35.7217 42.5313C35.456 41.9108 35.389 41.2232 35.5298 40.563C35.6707 39.9028 36.0126 39.3026 36.5084 38.845C37.0041 38.3874 37.6294 38.0951 38.2981 38.0081H38.7296V37.9441Z" fill="white"/>
</g>
<defs>
<clipPath id="clip0_623_14">
<rect width="40" height="40" fill="white" transform="translate(20 20)"/>
</clipPath>
</defs>
</svg>
