<svg width="17" height="10" viewBox="0 0 17 10" fill="none" xmlns="http://www.w3.org/2000/svg">
<path d="M16.281 1.78007L8.78104 9.28007C8.71139 9.3498 8.62867 9.40512 8.53762 9.44286C8.44657 9.4806 8.34898 9.50003 8.25042 9.50003C8.15186 9.50003 8.05426 9.4806 7.96321 9.44286C7.87216 9.40512 7.78945 9.3498 7.71979 9.28007L0.219792 1.78007C0.0790615 1.63934 0 1.44846 0 1.24944C0 1.05042 0.0790615 0.859546 0.219792 0.718815C0.360523 0.578085 0.551394 0.499023 0.750417 0.499023C0.94944 0.499023 1.14031 0.578085 1.28104 0.718815L8.25042 7.68913L15.2198 0.718815C15.2895 0.649132 15.3722 0.593857 15.4632 0.556145C15.5543 0.518433 15.6519 0.499023 15.7504 0.499023C15.849 0.499023 15.9465 0.518433 16.0376 0.556145C16.1286 0.593857 16.2114 0.649132 16.281 0.718815C16.3507 0.788498 16.406 0.871223 16.4437 0.962268C16.4814 1.05331 16.5008 1.15089 16.5008 1.24944C16.5008 1.34799 16.4814 1.44557 16.4437 1.53661C16.406 1.62766 16.3507 1.71038 16.281 1.78007Z" fill="black"/>
</svg>
