<svg width="20" height="20" viewBox="0 0 20 20" fill="none" xmlns="http://www.w3.org/2000/svg">
<path d="M9.32799 0H10.6554L11.3471 0.0880029C13.9059 0.425401 16.2295 1.75601 17.8163 3.79262C18.6716 4.83917 19.2982 6.05347 19.6556 7.35721C20.013 8.66094 20.0933 10.0252 19.8914 11.3619C19.7327 12.648 19.3167 13.889 18.6682 15.0107C18.0197 16.1325 17.1521 17.112 16.1171 17.891C15.0738 18.7211 13.8707 19.3271 12.5829 19.6713C11.2952 20.0155 9.9503 20.0904 8.6323 19.8913C6.68752 19.6437 4.8652 18.806 3.41054 17.4909C1.6304 15.9486 0.460385 13.8201 0.111964 11.4899C0.0679825 11.2059 0.0359845 10.9258 0 10.6418V9.31356C0.027988 9.07752 0.0519903 8.83747 0.0879748 8.60143C0.35552 6.66843 1.19043 4.85838 2.48694 3.40057C4.02633 1.61556 6.15412 0.441723 8.48436 0.0920075C8.76424 0.0720042 9.04811 0.0400067 9.32799 0ZM8.47636 11.6739L7.4528 10.7378C6.87705 10.2137 6.31328 9.67363 5.71753 9.16554C5.59386 9.05876 5.4448 8.98559 5.28469 8.95315C5.12458 8.92072 4.95883 8.93007 4.80338 8.98031C4.64793 9.03054 4.50803 9.12 4.39713 9.24002C4.28624 9.36004 4.20808 9.50663 4.1702 9.66562C4.12158 9.85666 4.12931 10.0577 4.19246 10.2444C4.25561 10.4311 4.37149 10.5956 4.52605 10.7178C5.60159 11.69 6.66913 12.6701 7.72468 13.6503C7.82151 13.7646 7.94261 13.8559 8.07914 13.9175C8.21567 13.9791 8.36422 14.0095 8.51396 14.0064C8.66371 14.0034 8.81088 13.9669 8.94478 13.8998C9.07868 13.8326 9.19594 13.7365 9.28802 13.6183L15.4773 7.46924C15.5388 7.41045 15.5962 7.34762 15.6493 7.28119C15.7422 7.16774 15.8089 7.03508 15.8444 6.89275C15.8799 6.75043 15.8835 6.602 15.8548 6.45813C15.8262 6.31426 15.766 6.17854 15.6786 6.06075C15.5912 5.94297 15.4787 5.84605 15.3494 5.77696C15.1426 5.66171 14.9018 5.62299 14.6693 5.66762C14.4368 5.71224 14.2275 5.83735 14.078 6.021L8.62829 11.4779C8.57325 11.5397 8.52249 11.6052 8.47636 11.6739Z" fill="#803DFF"/>
</svg>
