<svg width="1920" height="619" viewBox="0 0 1920 619" fill="none" xmlns="http://www.w3.org/2000/svg">
<g clip-path="url(#clip0_382_115)">
<rect width="2537" height="619" fill="#803DFF"/>
<ellipse cx="1249.41" cy="293.849" rx="406.847" ry="404.239" transform="rotate(-90 1249.41 293.849)" fill="url(#paint0_linear_382_115)"/>
<ellipse cx="1249.41" cy="293.849" rx="406.847" ry="404.239" transform="rotate(-90 1249.41 293.849)" fill="url(#paint1_linear_382_115)"/>
<ellipse cx="827.239" cy="293.847" rx="406.847" ry="404.239" transform="rotate(-90 827.239 293.847)" fill="url(#paint2_linear_382_115)"/>
<ellipse cx="1635.03" cy="293.849" rx="406.847" ry="404.239" transform="rotate(-90 1635.03 293.849)" fill="url(#paint3_linear_382_115)"/>
<ellipse cx="1635.03" cy="293.849" rx="406.847" ry="404.239" transform="rotate(-90 1635.03 293.849)" fill="url(#paint4_linear_382_115)"/>
<ellipse cx="2020.66" cy="293.849" rx="406.847" ry="404.239" transform="rotate(-90 2020.66 293.849)" fill="url(#paint5_linear_382_115)"/>
<ellipse cx="2020.66" cy="293.849" rx="406.847" ry="404.239" transform="rotate(-90 2020.66 293.849)" fill="url(#paint6_linear_382_115)"/>
</g>
<defs>
<linearGradient id="paint0_linear_382_115" x1="1253.21" y1="-39.2531" x2="1290.64" y2="748.254" gradientUnits="userSpaceOnUse">
<stop stop-color="#3461FF"/>
<stop offset="1" stop-color="#8399E9"/>
</linearGradient>
<linearGradient id="paint1_linear_382_115" x1="1253.21" y1="-39.2531" x2="1290.64" y2="748.254" gradientUnits="userSpaceOnUse">
<stop stop-color="#803DFF"/>
<stop offset="1" stop-color="#A677FF"/>
</linearGradient>
<linearGradient id="paint2_linear_382_115" x1="831.031" y1="-39.2551" x2="868.47" y2="748.252" gradientUnits="userSpaceOnUse">
<stop stop-color="#803DFF"/>
<stop offset="1" stop-color="#A677FF"/>
</linearGradient>
<linearGradient id="paint3_linear_382_115" x1="1638.83" y1="-39.2531" x2="1676.27" y2="748.254" gradientUnits="userSpaceOnUse">
<stop stop-color="#3461FF"/>
<stop offset="1" stop-color="#8399E9"/>
</linearGradient>
<linearGradient id="paint4_linear_382_115" x1="1638.83" y1="-39.2531" x2="1676.27" y2="748.254" gradientUnits="userSpaceOnUse">
<stop stop-color="#803DFF"/>
<stop offset="1" stop-color="#A677FF"/>
</linearGradient>
<linearGradient id="paint5_linear_382_115" x1="2024.45" y1="-39.2531" x2="2061.89" y2="748.254" gradientUnits="userSpaceOnUse">
<stop stop-color="#3461FF"/>
<stop offset="1" stop-color="#8399E9"/>
</linearGradient>
<linearGradient id="paint6_linear_382_115" x1="2024.45" y1="-39.2531" x2="2061.89" y2="748.254" gradientUnits="userSpaceOnUse">
<stop stop-color="#803DFF"/>
<stop offset="1" stop-color="#A677FF"/>
</linearGradient>
<clipPath id="clip0_382_115">
<rect width="2626" height="619" fill="white"/>
</clipPath>
</defs>
</svg>
